<svg height="369" viewBox="0 0 365 369" width="365" xmlns="http://www.w3.org/2000/svg"><g fill="none"><path d="m225 0c21.623045 0 41.558802 7.22413521 57.525392 19.3905257l.135012-.0953029 1.051305 1.014101c5.091472 4.0077702 9.76314 8.5249524 13.938169 13.4747134l25.094703 24.2586845c19.904443 22.7365916 31.561447 39.2065468 34.971011 49.4098653 4.692568 11.249298 7.284408 23.595677 7.284408 36.547413v130c0 52.467051-42.532949 95-95 95h-130c-28.180278 0-53.4947561-12.269948-70.892426-31.758836l-27.618558-26.202333c-11.5256741-13.197557-20.4795344-24.987282-26.8615808-35.369173-1.2634179-1.998408-2.4542495-4.048533-3.5688085-6.145384-3.61568758-6.648078-6.05203891-12.649058-7.30767138-18.003703-2.44175825-8.416239-3.75095532-17.315515-3.75095532-26.520571v-130c0-52.4670512 42.5329488-95 95-95z" fill="#000"/><rect fill="#fff" height="240" rx="45" width="240" x="87" y="89"/><text fill="#000" font-family="Baskerville-Bold, Baskerville" font-size="180" font-weight="bold" transform="translate(154 105)"><tspan x="0" y="161">F</tspan></text></g></svg>